#!OML:ASF Y:\EmotionMaleHayes\Project 1\Capture day 1\Session 1\Male1.ASF
:FULLY-SPECIFIED
:DEGREES
305
root -29.9712 16.2529 9.59453 -1.61911 1.26724 -10.9653
lowerback 6.47143 4.13953 7.50281
upperback 2.44714 5.98735 1.73317
thorax -0.495135 3.02864 -2.76063
lowerneck -21.0127 4.51255 8.50867
upperneck 31.8976 5.22663 -4.71938
head 15.0024 2.62982 -2.42513
rclavicle -7.65321e-015 -3.4191e-014
rhumerus -23.9953 10.8692 -92.316
rradius 37.1253
rwrist 2.38224
rhand -10.1361 -30.4189
rfingers 7.12502
rthumb 15.8526 -59.7899
lclavicle -7.65321e-015 -3.4191e-014
lhumerus -46.8196 0.409207 82.8653
lradius 23.5448
lwrist -19.6521
lhand -9.43543 -25.0133
lfingers 7.12502
lthumb 16.5273 4.30283
rfemur 18.1868 -2.94741 29.862
rtibia 12.8723
rfoot -26.8541 -0.12034
rtoes -33.2956
lfemur -22.6531 21.4581 -17.4457
ltibia 19.4594
lfoot -14.5015 23.2103
ltoes 23.7413
306
root -29.9461 16.2346 9.73923 -1.59053 1.64688 -10.3597
lowerback 6.20882 4.1601 6.64169
upperback 2.38245 5.94144 1.45863
thorax -0.482293 3.002 -2.55247
lowerneck -21.103 4.49426 8.3912
upperneck 31.8707 5.1638 -4.51868
head 14.9934 2.61591 -2.33117
rclavicle -4.73108e-014 -1.59028e-015
rhumerus -24.4321 10.5798 -92.3954
rradius 37.2699
rwrist 2.3718
rhand -10.1032 -30.2513
rfingers 7.12502
rthumb 15.8843 -59.6198
lclavicle -4.73108e-014 -1.59028e-015
lhumerus -46.5312 1.40527 81.8365
lradius 22.82
lwrist -21.2486
lhand -8.73893 -25.1766
lfingers 7.12502
lthumb 17.1977 4.08238
rfemur 18.3313 -2.73769 29.214
rtibia 13.661
rfoot -26.7536 -0.643855
rtoes -35.9683
lfemur -22.457 21.3519 -18.3366
ltibia 19.5462
lfoot -13.9412 23.0692
ltoes 24.102
307
root -29.9226 16.2226 9.88263 -1.65173 1.84697 -9.71695
lowerback 6.04488 4.25804 5.60211
upperback 2.35878 5.99926 1.24348
thorax -0.497133 3.02573 -2.19605
lowerneck -21.1517 4.55437 8.53845
upperneck 31.9109 5.2371 -4.62891
head 15.0391 2.64983 -2.38833
rclavicle 6.13251e-014 8.74653e-015
rhumerus -24.8813 10.1957 -92.3686
rradius 37.4049
rwrist 2.47443
rhand -10.1497 -30.2205
rfingers 7.12502
rthumb 15.8395 -59.5925
lclavicle 6.13251e-014 8.74653e-015
lhumerus -46.0703 2.84035 80.5734
lradius 21.8529
lwrist -23.3292
lhand -9.15523 -25.4991
lfingers 7.12502
lthumb 16.797 3.79431
rfemur 18.4763 -2.32339 28.5678
rtibia 14.6203
rfoot -26.4642 -1.03622
rtoes -38.7855
lfemur -22.1433 21.5474 -19.17
ltibia 19.785
lfoot -13.3841 22.9505
ltoes 25.5655
308
root -29.8944 16.2177 10.0269 -1.72503 2.23757 -9.1413
lowerback 5.88604 4.26783 4.66346
upperback 2.33579 5.94931 1.03343
thorax -0.512071 2.99625 -1.88395
lowerneck -21.0834 4.70185 8.73478
upperneck 31.7869 5.43246 -4.7601
head 14.997 2.73804 -2.43708
rclavicle -3.04141e-014 -3.49861e-014
rhumerus -25.3294 9.77523 -92.3575
rradius 37.4818
rwrist 2.64029
rhand -10.1126 -30.185
rfingers 7.12502
rthumb 15.8752 -59.5542
lclavicle -3.04141e-014 -3.49861e-014
lhumerus -45.6828 3.45057 79.9104
lradius 21.1776
lwrist -24.5408
lhand -9.81991 -25.0994
lfingers 7.12502
lthumb 16.1571 4.24723
rfemur 18.5849 -1.92409 28.0067
rtibia 15.6213
rfoot -26.0694 -1.05138
rtoes -38.6675
lfemur -21.9192 21.3682 -19.8574
ltibia 20.2891
lfoot -13.4675 22.7906
ltoes 27.6936
309
root -29.8593 16.2171 10.1665 -1.69477 2.62988 -8.59845
lowerback 5.72699 4.25168 3.97706
upperback 2.2695 5.88122 0.731857
thorax -0.535233 2.95875 -1.80312
lowerneck -20.9687 4.7207 8.70864
upperneck 31.5829 5.40758 -4.57842
head 14.8683 2.74962 -2.35888
rclavicle -2.23633e-014 -1.03368e-014
rhumerus -25.7239 9.24233 -92.4002
rradius 37.4275
rwrist 2.85933
rhand -9.95151 -30.0191
rfingers 7.12502
rthumb 16.0303 -59.3759
lclavicle -2.23633e-014 -1.03368e-014
lhumerus -45.38 3.74953 79.3834
lradius 20.7526
lwrist -25.636
lhand -10.7499 -24.4076
lfingers 7.12502
lthumb 15.2614 5.0094
rfemur 18.4339 -1.63384 27.3561
rtibia 16.8427
rfoot -25.5479 -0.542371
rtoes -36.6978
lfemur -21.8035 20.6698 -20.5027
ltibia 20.9208
lfoot -14.412 22.8757
ltoes 28.7138
310
root -29.8225 16.2177 10.3035 -1.66749 2.99586 -8.20222
lowerback 5.56016 4.265 3.46753
upperback 2.21147 5.86382 0.498097
thorax -0.530843 2.94799 -1.75056
lowerneck -20.761 4.7348 8.51983
upperneck 31.3553 5.42569 -4.33526
head 14.7039 2.7698 -2.22069
rclavicle 1.18277e-014 -4.77083e-015
rhumerus -26.1219 8.8225 -92.3421
rradius 37.2926
rwrist 2.9623
rhand -9.86732 -29.8879
rfingers 7.12502
rthumb 16.1114 -59.2382
lclavicle 1.18277e-014 -4.77083e-015
lhumerus -44.9577 4.67238 78.4579
lradius 20.1747
lwrist -26.9914
lhand -11.231 -24.1451
lfingers 7.12502
lthumb 14.7979 5.30658
rfemur 18.0672 -1.54733 26.7396
rtibia 18.4292
rfoot -24.7242 -0.0628171
rtoes -35.8394
lfemur -21.6509 19.9199 -21.0069
ltibia 21.5813
lfoot -15.3145 23.0324
ltoes 28.5774
311
root -29.7811 16.2233 10.441 -1.69867 3.5198 -7.73491
lowerback 5.31964 4.33012 3.34311
upperback 2.28179 5.92817 -0.0288972
thorax -0.27776 2.98825 -2.19697
lowerneck -20.8005 4.72356 8.41352
upperneck 31.0601 5.26418 -3.85891
head 14.5465 2.75199 -2.03169
rclavicle -4.60187e-014 1.59028e-015
rhumerus -26.3222 7.75236 -92.4117
rradius 37.098
rwrist 3.27469
rhand -9.96464 -29.7177
rfingers 7.12502
rthumb 16.0177 -59.0755
lclavicle -4.60187e-014 1.59028e-015
lhumerus -44.026 5.16051 77.3864
lradius 19.4917
lwrist -28.014
lhand -10.7717 -24.4429
lfingers 7.12502
lthumb 15.2404 4.9757
rfemur 17.5977 -1.6637 25.9535
rtibia 20.2508
rfoot -23.6062 0.262113
rtoes -35.9002
lfemur -21.3795 19.4741 -21.6905
ltibia 22.1583
lfoot -15.6461 22.7158
ltoes 28.6119
312
root -29.7408 16.2438 10.5823 -2.02773 4.20763 -7.16978
lowerback 5.3868 4.25753 2.72526
upperback 2.42188 5.79911 -0.340872
thorax -0.208387 2.92435 -2.16931
lowerneck -20.9176 4.85779 8.52667
upperneck 30.9465 5.38501 -3.80052
head 14.5342 2.8225 -2.00025
rclavicle 2.18663e-014 7.95139e-015
rhumerus -26.6763 7.00465 -92.3565
rradius 36.9347
rwrist 3.53077
rhand -10.078 -29.6054
rfingers 7.12502
rthumb 15.9085 -58.972
lclavicle 2.18663e-014 7.95139e-015
lhumerus -43.2312 6.12793 76.3718
lradius 18.939
lwrist -29.0823
lhand -9.69002 -25.1809
lfingers 7.12502
lthumb 16.2821 4.15551
rfemur 17.3992 -1.99402 24.9403
rtibia 22.1469
rfoot -22.2792 1.04123
rtoes -35.5012
lfemur -20.5265 19.2207 -22.3796
ltibia 22.4303
lfoot -15.5959 22.0289
ltoes 27.792
313
root -29.6969 16.2656 10.7199 -2.38182 4.99018 -6.8745
lowerback 5.55552 4.16908 2.29494
upperback 2.49705 5.66249 -0.496541
thorax -0.258779 2.85391 -2.09622
lowerneck -20.8829 4.89976 8.67128
upperneck 30.9079 5.45852 -3.971
head 14.5269 2.84793 -2.08076
rclavicle 2.78299e-015 1.03368e-014
rhumerus -27.2437 6.44001 -92.193
rradius 36.87
rwrist 3.39983
rhand -10.2854 -29.7238
rfingers 7.12502
rthumb 15.7088 -59.1062
lclavicle 2.78299e-015 1.03368e-014
lhumerus -42.6623 7.25115 75.352
lradius 18.5329
lwrist -30.142
lhand -9.15992 -25.5146
lfingers 7.12502
lthumb 16.7925 3.77918
rfemur 17.0301 -2.66181 23.9873
rtibia 24.3193
rfoot -20.5853 2.39318
rtoes -34.9982
lfemur -19.6098 18.8344 -22.7832
ltibia 22.568
lfoot -15.5481 21.4749
ltoes 26.2024
314
root -29.6488 16.2898 10.8549 -2.78992 5.79084 -6.73791
lowerback 5.82164 4.03636 2.00436
upperback 2.53791 5.4754 -0.571304
thorax -0.394298 2.75727 -2.02363
lowerneck -20.6794 5.02056 8.79343
upperneck 30.8195 5.66367 -4.11515
head 14.47 2.93261 -2.12316
rclavicle 1.40143e-014 2.38542e-015
rhumerus -27.8615 6.02277 -92.0046
rradius 36.7622
rwrist 3.20307
rhand -10.445 -29.8273
rfingers 7.12502
rthumb 15.5551 -59.2217
lclavicle 1.40143e-014 2.38542e-015
lhumerus -42.4242 8.089 74.6529
lradius 18.5156
lwrist -30.7967
lhand -9.04199 -25.4778
lfingers 7.12502
lthumb 16.906 3.80635
rfemur 16.4891 -3.41426 23.1278
rtibia 26.7994
rfoot -18.45 3.9808
rtoes -32.7383
lfemur -18.5481 18.3911 -23.0206
ltibia 22.5469
lfoot -15.8032 20.9886
ltoes 25.3922
315
root -29.6012 16.3132 10.9882 -3.25695 6.48497 -6.54097
lowerback 6.16006 3.92203 1.51933
upperback 2.60862 5.30202 -0.533189
thorax -0.565726 2.66539 -1.73212
lowerneck -20.4329 5.15767 8.70963
upperneck 30.7122 5.98317 -4.28602
head 14.3974 3.03883 -2.12051
rclavicle 1.81888e-014 1.35174e-014
rhumerus -28.4121 5.63428 -91.5919
rradius 36.5215
rwrist 3.18343
rhand -10.3702 -29.9102
rfingers 7.12502
rthumb 15.6271 -59.299
lclavicle 1.81888e-014 1.35174e-014
lhumerus -42.3234 7.79131 75.0297
lradius 19.0592
lwrist -29.9335
lhand -8.37176 -25.5189
lfingers 7.12502
lthumb 17.5511 3.70887
rfemur 15.8591 -3.88049 22.3074
rtibia 29.4783
rfoot -15.9131 5.46071
rtoes -29.3867
lfemur -17.353 17.9973 -23.2538
ltibia 22.4187
lfoot -16.231 20.574
ltoes 25.4386
